<svg width="270" height="252" viewBox="0 0 270 252" fill="none" xmlns="http://www.w3.org/2000/svg">
<path d="M211.647 140.223C211.653 143.611 210.313 146.863 207.922 149.263C205.531 151.663 202.284 153.014 198.897 153.02L71.0171 153.244C69.3398 153.247 67.6783 152.919 66.1276 152.28C64.5769 151.64 63.1672 150.702 61.9791 149.518C60.791 148.334 59.8477 146.927 59.2032 145.378C58.5586 143.829 58.2253 142.169 58.2224 140.491L58 13.0204C57.9941 9.6323 59.3341 6.38063 61.7252 3.9807C64.1162 1.58077 67.3626 0.229167 70.75 0.223234L198.63 1.95062e-05C200.307 -0.00291205 201.968 0.324618 203.519 0.963908C205.07 1.6032 206.48 2.54173 207.668 3.72591C208.856 4.9101 209.799 6.31674 210.444 7.86554C211.088 9.41434 211.421 11.075 211.424 12.7526L211.647 140.223ZM107.665 26.0258C100.671 26.0952 93.0269 29.3149 88.8359 34.9734C85.1569 39.9462 83.9161 46.3163 84.081 52.5561C84.4628 66.8931 93.7557 75.9622 108.073 76.6045C111.688 76.7665 115.133 76.8128 118.407 76.7433C121.75 76.6797 123.989 76.7838 125.123 77.0558C130.459 78.3489 134.459 83.2783 134.667 88.8673C134.669 88.9671 134.712 89.062 134.785 89.1318C134.858 89.2015 134.956 89.2405 135.058 89.2405C138.575 89.2231 141.791 88.5549 144.706 87.2357C154.077 82.9832 159.613 74.7906 160.012 64.5933C160.192 59.878 160.186 55.0787 159.995 50.1956C159.804 45.3876 158.763 41.3145 156.871 37.9761C153.609 32.2396 148.55 28.6901 142.277 26.9717C140.189 26.4047 138.178 26.0981 136.246 26.0518C129.577 25.9014 120.05 25.8927 107.665 26.0258ZM128.316 95.1072C128.359 91.2539 129.192 86.6022 125.548 84.1809C124.269 83.3246 122.47 82.9167 120.151 82.9572C116.709 83.015 113.539 83.0324 110.641 83.0093C110.493 83.0089 110.35 83.0562 110.232 83.144C110.115 83.2317 110.03 83.3551 109.99 83.4953C109.689 84.502 109.522 85.5318 109.487 86.5848C109.342 91.6705 109.308 96.7098 109.383 101.703C109.556 113.48 116.428 122.74 127.656 126.445C129.86 127.166 131.977 127.01 134.19 127.426C134.502 127.484 134.679 127.357 134.719 127.044C135.379 121.374 138.071 117.59 142.797 115.693C144.735 114.917 147.521 114.591 151.153 114.712C154.508 114.828 157.898 114.831 161.323 114.721C172.524 114.374 182.216 107.943 184.655 96.5478C185.378 93.1747 185.566 89.55 185.219 85.6736C184.848 81.5831 183.744 78.0162 181.904 74.9729C178.647 69.6037 173.65 66.2278 166.91 64.845C166.592 64.7756 166.401 64.9 166.338 65.2182C165.991 67.0146 165.991 68.9152 165.6 70.6857C164.351 76.3441 161.803 81.2475 157.956 85.3959C153.45 90.2617 147.917 93.4351 141.357 94.9163C138.349 95.599 134.173 95.842 128.828 95.6452C128.481 95.6337 128.31 95.4543 128.316 95.1072Z" fill="white"/>
<path d="M88.8361 34.9729C93.0271 29.3145 100.671 26.0948 107.665 26.0253C120.05 25.8923 129.577 25.9009 136.247 26.0514C138.179 26.0977 140.189 26.4043 142.277 26.9713C148.55 28.6897 153.609 32.2392 156.872 37.9757C158.763 41.3141 159.804 45.3872 159.995 50.1952C160.186 55.0783 160.192 59.8775 160.013 64.5929C159.613 74.7902 154.078 82.9828 144.707 87.2353C141.791 88.5544 138.575 89.2227 135.058 89.24C134.956 89.2401 134.858 89.2011 134.785 89.1314C134.712 89.0616 134.67 88.9667 134.667 88.8669C134.459 83.2779 130.459 78.3484 125.123 77.0553C123.989 76.7834 121.75 76.6793 118.407 76.7429C115.133 76.8123 111.688 76.766 108.073 76.604C93.7559 75.9618 84.463 66.8927 84.0812 52.5557C83.9163 46.3158 85.1571 39.9458 88.8361 34.9729Z" fill="#524ED2"/>
<path d="M128.828 95.6451C134.173 95.8418 138.349 95.5988 141.357 94.9161C147.917 93.4349 153.45 90.2615 157.956 85.3957C161.803 81.2473 164.351 76.3439 165.6 70.6855C165.991 68.9151 165.991 67.0145 166.338 65.218C166.402 64.8998 166.592 64.7754 166.911 64.8448C173.65 66.2276 178.647 69.6036 181.904 74.9727C183.744 78.016 184.849 81.5829 185.219 85.6734C185.566 89.5498 185.378 93.1746 184.655 96.5476C182.217 107.943 172.524 114.373 161.323 114.721C157.898 114.831 154.508 114.828 151.153 114.712C147.521 114.59 144.735 114.917 142.797 115.693C138.071 117.59 135.379 121.374 134.719 127.044C134.679 127.357 134.502 127.484 134.19 127.426C131.977 127.009 129.86 127.166 127.656 126.445C116.428 122.74 109.556 113.48 109.383 101.703C109.308 96.7096 109.342 91.6703 109.487 86.5846C109.522 85.5316 109.689 84.5018 109.99 83.4951C110.03 83.3549 110.115 83.2315 110.233 83.1438C110.35 83.056 110.493 83.0087 110.641 83.0091C113.539 83.0322 116.709 83.0149 120.151 82.957C122.47 82.9165 124.269 83.3244 125.548 84.1807C129.192 86.602 128.359 91.2537 128.316 95.107C128.31 95.4542 128.481 95.6335 128.828 95.6451Z" fill="#524ED2"/>
<path d="M108.631 202.98C111.386 202.98 113.62 200.746 113.62 197.99C113.62 195.234 111.386 193 108.631 193C105.875 193 103.642 195.234 103.642 197.99C103.642 200.746 105.875 202.98 108.631 202.98Z" fill="white"/>
<path d="M77.2682 211.553V201.639C77.2682 201.445 77.3651 201.348 77.5589 201.348L83.8698 201.335C84.046 201.335 84.1342 201.421 84.1342 201.593L84.1209 211.719C84.1209 211.965 84.2465 212.089 84.4976 212.089H94.4034C94.4595 212.089 94.5133 212.11 94.5529 212.149C94.5926 212.187 94.6149 212.239 94.6149 212.294L94.6215 217.793C94.6215 217.907 94.5642 217.965 94.4496 217.965H84.5241C84.2597 217.965 84.1276 218.097 84.1276 218.361C84.1187 224.799 84.1055 231.272 84.0879 237.78C84.0835 239.595 84.4359 241.224 85.1452 242.664C86.7576 245.936 92.0641 245.275 94.7338 243.947C94.7507 243.939 94.7692 243.936 94.7876 243.937C94.8061 243.938 94.824 243.944 94.8397 243.954C94.8553 243.964 94.8684 243.977 94.8776 243.993C94.8868 244.009 94.8919 244.027 94.8924 244.046L94.8858 249.922C94.8857 249.974 94.8691 250.024 94.8383 250.067C94.8076 250.11 94.7641 250.142 94.714 250.16C91.89 251.072 88.9009 251.367 85.7466 251.045C80.1758 250.484 77.0038 246.253 77.5127 240.655C77.5722 240.073 77.3409 239.532 77.3343 238.95C77.2373 232.129 77.2219 225.308 77.288 218.487C77.2889 218.418 77.276 218.349 77.2502 218.285C77.2243 218.221 77.186 218.162 77.1375 218.113C77.0889 218.064 77.031 218.025 76.9673 217.998C76.9035 217.972 76.8351 217.958 76.7659 217.958L69.0409 217.978C68.944 217.978 68.8955 217.927 68.8955 217.826L68.9021 212.181C68.9021 212.111 68.9352 212.075 69.0012 212.075L76.7329 212.089C77.0898 212.089 77.2682 211.91 77.2682 211.553Z" fill="white"/>
<path d="M27.2502 245.42C27.2414 244.116 26.8097 243.957 25.955 244.944C25.3427 245.654 24.7259 246.346 24.1047 247.02C20.8733 250.51 15.243 251.699 10.6833 251.111C3.57285 250.192 -1.14543 244.72 0.242299 237.469C1.67629 229.967 10.5247 227.33 17.0207 227.099C20.1596 226.986 23.1201 226.629 26.2392 226.841C26.2987 226.845 26.3584 226.836 26.4142 226.815C26.4699 226.794 26.5203 226.761 26.5618 226.719C26.6034 226.677 26.635 226.626 26.6547 226.571C26.6743 226.516 26.6813 226.457 26.6753 226.398C26.5233 224.865 26.8009 223.219 26.1929 221.798C24.9902 218.965 22.9218 217.306 19.9878 216.821C14.4963 215.909 10.5115 217.231 6.4012 220.615C6.24701 220.743 6.10162 220.734 5.96505 220.588L2.30407 216.702C2.22918 216.618 2.23579 216.543 2.3239 216.477C5.42978 214.111 8.68765 212.551 12.0975 211.798C21.316 209.769 32.9267 212.816 32.8078 224.462C32.7461 230.71 32.7659 237.253 32.8673 244.092C32.8937 246.114 33.277 248.177 33.3034 250.219C33.3034 250.329 33.2505 250.382 33.1448 250.378L27.4617 250.292C27.4138 250.29 27.3684 250.27 27.3351 250.235C27.3018 250.201 27.2832 250.155 27.2833 250.107L27.2502 245.42ZM16.2144 232.082C11.4102 232.598 6.0179 234.759 6.96288 240.695C7.34616 243.087 8.70527 244.616 11.0402 245.282C16.7894 246.914 23.5034 245.506 25.7237 239.439C26.4595 237.421 26.7612 234.946 26.6291 232.016C26.6203 231.792 26.5035 231.677 26.2788 231.673C22.7676 231.598 19.4128 231.734 16.2144 232.082Z" fill="white"/>
<path d="M44.3922 249.743C44.3393 249.637 44.2754 249.587 44.2005 249.591C44.1697 249.591 44.1521 249.573 44.1477 249.538C44.1344 237.306 44.1366 224.946 44.1543 212.458C44.1543 212.36 44.1939 212.266 44.2646 212.197C44.3352 212.127 44.431 212.088 44.5309 212.088H50.6304C50.8815 212.093 51.007 212.218 51.007 212.465L50.9938 217.317C50.9938 217.554 51.1128 217.66 51.3506 217.634L51.9454 217.574C52.0518 217.564 52.1529 217.523 52.2363 217.456C52.3196 217.389 52.3816 217.299 52.4146 217.198C52.6437 216.515 53.0093 215.917 53.5115 215.406C56.6791 212.194 60.5339 210.83 65.076 211.315C65.5914 211.372 65.8492 211.661 65.8492 212.181L65.8161 218.467C65.8161 218.74 65.6818 218.852 65.413 218.804C63.3953 218.442 61.3886 218.416 59.3929 218.724C56.7584 219.13 54.657 220.401 53.0886 222.538C52.3617 223.523 52.0842 224.653 51.6282 225.764C51.333 226.491 51.1964 227.279 51.2185 228.13C51.2449 229.181 51.0136 230.185 51.0136 231.243C50.9916 237.293 50.9938 243.548 51.0202 250.007C51.0202 250.223 50.9123 250.331 50.6964 250.331L44.5507 250.377C44.5235 250.378 44.4965 250.372 44.4722 250.36C44.4478 250.347 44.4266 250.329 44.4105 250.306C44.3943 250.284 44.3837 250.257 44.3794 250.23C44.375 250.202 44.3771 250.173 44.3855 250.146C44.4076 250.076 44.423 250.007 44.4318 249.941C44.4406 249.871 44.4274 249.805 44.3922 249.743Z" fill="white"/>
<path d="M152.371 241.309L156.144 245.129C156.404 245.389 156.422 245.664 156.197 245.955C155.818 246.444 155.301 246.925 154.644 247.396C150.27 250.525 145.3 251.752 139.736 251.078C116.515 248.269 116.706 213.813 140.007 211.434C146.487 210.773 151.979 212.559 156.481 216.794C156.675 216.979 156.673 217.162 156.475 217.343L151.902 221.454C151.673 221.661 151.452 221.65 151.241 221.421C148.615 218.605 145.137 217.358 140.807 217.68C135.989 218.037 132.262 221.051 130.703 225.519C128.72 231.163 129.546 238.916 134.892 242.584C139.987 246.074 147.137 245.691 151.492 241.309C151.787 241.014 152.08 241.014 152.371 241.309Z" fill="white"/>
<path d="M202.279 230.806C202.334 233.433 201.865 236.045 200.9 238.493C199.934 240.941 198.491 243.178 196.652 245.074C194.813 246.971 192.614 248.491 190.182 249.548C187.749 250.604 185.13 251.177 182.474 251.233C179.819 251.288 177.178 250.826 174.703 249.872C172.229 248.918 169.968 247.492 168.051 245.674C166.135 243.855 164.599 241.682 163.532 239.276C162.465 236.87 161.887 234.28 161.832 231.654C161.777 229.027 162.246 226.415 163.211 223.967C164.177 221.518 165.62 219.282 167.459 217.385C169.298 215.489 171.497 213.969 173.929 212.912C176.362 211.855 178.981 211.283 181.637 211.227C184.292 211.172 186.933 211.634 189.408 212.588C191.882 213.541 194.143 214.968 196.059 216.786C197.976 218.604 199.512 220.778 200.579 223.184C201.646 225.589 202.224 228.179 202.279 230.806ZM194.948 233.193C195.173 231.783 195.175 230.476 194.955 229.273C194.827 228.546 194.679 227.793 194.512 227.013C192.767 218.678 183.879 215.744 176.762 218.5C173.319 219.828 171.039 222.532 169.909 225.903C169.191 228.048 168.903 230.128 169.044 232.142C169.625 240.311 175.13 245.586 183.542 244.859C190.303 244.277 193.924 239.683 194.948 233.193Z" fill="white"/>
<path d="M218.467 217.317C218.471 218.26 218.773 218.37 219.372 217.647C220.198 216.656 220.7 215.552 221.764 214.746C228.782 209.445 237.935 209.842 242.759 217.76C242.823 217.866 242.913 217.954 243.021 218.016C243.129 218.078 243.25 218.111 243.374 218.113C243.499 218.115 243.621 218.086 243.731 218.027C243.84 217.969 243.933 217.884 244.001 217.78C247.675 212.142 253.847 209.987 260.304 211.798C267.969 213.94 269.892 220.602 269.939 227.707C269.987 234.973 270.007 242.427 269.998 250.067C269.998 250.261 269.899 250.358 269.701 250.358H263.476C263.264 250.358 263.158 250.252 263.158 250.041C263.22 242.647 263.207 234.967 263.119 227C263.079 223.748 262.26 219.789 258.883 218.341C255.826 217.028 252.684 217.114 249.46 218.599C245.68 220.344 244.53 225.037 244.497 228.983C244.444 235.738 244.439 242.737 244.484 249.981C244.484 250.228 244.36 250.351 244.113 250.351H237.988C237.715 250.351 237.578 250.215 237.578 249.942C237.618 242.504 237.613 235.05 237.565 227.582C237.551 225.277 237.162 223.177 236.395 221.283C235.054 217.958 230.606 216.947 227.507 217.562C224.617 218.139 222.511 219.529 221.189 221.732C219.683 224.239 218.929 227.176 218.929 230.543C218.938 236.892 218.943 243.367 218.943 249.968C218.943 250.224 218.815 250.351 218.559 250.351H212.823C212.625 250.351 212.435 250.273 212.295 250.133C212.155 249.993 212.077 249.803 212.077 249.605V212.704C212.077 212.622 212.093 212.541 212.124 212.466C212.156 212.39 212.202 212.322 212.261 212.264C212.319 212.207 212.388 212.161 212.464 212.13C212.54 212.098 212.622 212.082 212.704 212.082L217.951 212.089C218.286 212.093 218.454 212.263 218.454 212.598L218.467 217.317Z" fill="white"/>
<path d="M111.882 212.056H105.432C105.334 212.056 105.254 212.136 105.254 212.234V250.199C105.254 250.298 105.334 250.378 105.432 250.378H111.882C111.981 250.378 112.06 250.298 112.06 250.199V212.234C112.06 212.136 111.981 212.056 111.882 212.056Z" fill="white"/>
</svg>
